<?xml version="1.0" encoding="UTF-8" standalone="no"?>
<!-- Generator: Adobe Illustrator 25.2.1, SVG Export Plug-In . SVG Version: 6.00 Build 0)  -->

<svg
   version="1.1"
   id="Layer_1"
   x="0px"
   y="0px"
   viewBox="0 0 480 180"
   xml:space="preserve"
   sodipodi:docname="semver-github.svg"
   inkscape:version="1.4.3 (0d15f75042, 2025-12-25)"
   width="480"
   height="180"
   inkscape:export-filename="semver-github.png"
   inkscape:export-xdpi="200"
   inkscape:export-ydpi="200"
   xmlns:inkscape="http://www.inkscape.org/namespaces/inkscape"
   xmlns:sodipodi="http://sodipodi.sourceforge.net/DTD/sodipodi-0.dtd"
   xmlns="http://www.w3.org/2000/svg"
   xmlns:svg="http://www.w3.org/2000/svg"><defs
   id="defs1120" /><sodipodi:namedview
   id="namedview1118"
   pagecolor="#ffffff"
   bordercolor="#666666"
   borderopacity="1.0"
   inkscape:pageshadow="2"
   inkscape:pageopacity="0.0"
   inkscape:pagecheckerboard="0"
   showgrid="false"
   inkscape:zoom="1.1129996"
   inkscape:cx="398.02351"
   inkscape:cy="50.763721"
   inkscape:window-width="1458"
   inkscape:window-height="1182"
   inkscape:window-x="0"
   inkscape:window-y="0"
   inkscape:window-maximized="0"
   inkscape:current-layer="g1061"
   showguides="true"
   inkscape:guide-bbox="true"
   inkscape:showpageshadow="2"
   inkscape:deskcolor="#d1d1d1"><sodipodi:guide
     position="268.8,101.8"
     orientation="0,-1"
     id="guide20038"
     inkscape:locked="false" /><sodipodi:guide
     position="163.1,101.8"
     orientation="1,0"
     id="guide20120"
     inkscape:locked="false" /><sodipodi:guide
     position="208.32937,35.771972"
     orientation="0,-1"
     id="guide25439"
     inkscape:locked="false" /><sodipodi:guide
     position="80.298025,163.09711"
     orientation="0,-1"
     id="guide1"
     inkscape:locked="false" /><sodipodi:guide
     position="130.61726,86.466686"
     orientation="1,0"
     id="guide2"
     inkscape:locked="false" /><sodipodi:guide
     position="32.087066,109.32773"
     orientation="1,0"
     id="guide4"
     inkscape:locked="false" /></sodipodi:namedview>
<style
   type="text/css"
   id="style1045">
	.st0{enable-background:new    ;}
	.st1{fill:#EE0000;}
	.st2{fill:#FFFAFA;}
</style>




<g
   class="st0"
   id="g1061"
   style="display:inline">







<rect
   style="display:inline;opacity:0.991;fill:#ffffff;fill-opacity:1;stroke-width:11.991;stroke-linecap:round;stroke-linejoin:round;paint-order:markers fill stroke"
   id="rect30260"
   width="480"
   height="179.85895"
   x="0"
   y="0.070526123"
   ry="19.06522" /><g
   id="text3348"
   style="font-size:64.6169px;line-height:0.9;letter-spacing:0px;stroke-width:1.61542"
   aria-label="PKO&#10;Semver"><path
     style="font-weight:800;font-family:Overpass;-inkscape-font-specification:'Overpass Ultra-Bold'"
     d="M 163.11638,78.106651 V 32.874823 h 19.70816 q 5.7509,0 9.17559,2.132358 3.4247,2.100049 4.91089,5.395511 1.48619,3.295461 1.48619,6.881699 0,2.487751 -0.87233,5.040118 -0.87233,2.520059 -2.74622,4.652417 -1.84158,2.100049 -4.81396,3.392387 -2.97237,1.292338 -7.14016,1.292338 h -10.40333 v 16.445 z m 9.30483,-25.20059 h 10.79103 q 2.03543,0 3.26315,-0.840019 1.22772,-0.84002 1.77696,-2.132358 0.54925,-1.324646 0.54925,-2.649293 0,-1.227721 -0.51694,-2.520059 -0.48462,-1.324646 -1.71234,-2.229283 -1.22773,-0.904636 -3.36008,-0.904636 h -10.79103 z m 32.2697,25.20059 V 32.874823 h 9.30483 v 21.485118 l 16.99424,-21.485118 h 11.11411 l -13.3757,16.315767 15.96037,28.916061 h -10.85563 l -11.37258,-21.097417 -8.46481,10.564863 v 10.532554 z m 62.67837,0.775403 q -5.42782,0 -9.24022,-2.035432 -3.8124,-2.067741 -6.17091,-5.460128 -2.32621,-3.424696 -3.4247,-7.560177 -1.06618,-4.135482 -1.06618,-8.33558 0,-4.200098 1.06618,-8.33558 1.09849,-4.135481 3.4247,-7.527868 2.35851,-3.424696 6.17091,-5.460128 3.8124,-2.067741 9.24022,-2.067741 5.49243,0 9.27252,2.067741 3.78009,2.035432 6.1063,5.460128 2.35851,3.392387 3.42469,7.527868 1.06618,4.135482 1.06618,8.33558 0,4.200098 -1.06618,8.33558 -1.06618,4.135481 -3.42469,7.560177 -2.32621,3.392387 -6.1063,5.460128 -3.78009,2.035432 -9.27252,2.035432 z m 0,-8.981749 q 2.84314,0 4.78165,-1.324646 1.97081,-1.324646 3.16622,-3.489313 1.19542,-2.196974 1.74466,-4.717033 0.54924,-2.520059 0.54924,-4.878576 0,-2.520059 -0.51693,-5.072426 -0.51694,-2.552368 -1.71235,-4.684725 -1.1631,-2.132358 -3.13392,-3.424696 -1.97081,-1.292338 -4.87857,-1.292338 -2.90776,0 -4.87858,1.356955 -1.97082,1.324646 -3.16623,3.489312 -1.19541,2.164666 -1.71235,4.717034 -0.51693,2.552367 -0.51693,4.910884 0,2.487751 0.51693,5.040118 0.54925,2.520059 1.74466,4.652417 1.22772,2.132357 3.19854,3.424695 1.97081,1.292338 4.81396,1.292338 z"
     id="path4" /><path
     style="font-family:Overpass;-inkscape-font-specification:'Overpass Bold'"
     d="m 177.59057,142.68496 q -3.94163,0 -7.14017,-1.29234 -3.19854,-1.32464 -5.42782,-3.58624 -2.19697,-2.2939 -3.19854,-5.20166 l 5.29859,-1.9385 q 1.35695,3.00468 4.10317,4.87857 2.77853,1.84158 6.494,1.84158 4.07086,0 6.494,-1.9385 2.42313,-1.97082 2.42313,-5.68629 0,-2.61698 -1.45388,-4.39395 -1.45388,-1.77696 -3.78009,-2.97238 -2.3262,-1.22772 -4.9755,-2.19697 -2.35851,-0.87233 -4.71703,-1.93851 -2.35852,-1.06618 -4.29702,-2.52006 -1.9062,-1.48618 -3.06931,-3.58623 -1.1631,-2.13236 -1.1631,-5.07243 0,-3.03699 1.64773,-5.55705 1.64773,-2.552371 4.74934,-4.070868 3.10161,-1.550806 7.49556,-1.550806 3.58624,0 6.30015,1.066179 2.74622,1.03387 4.49087,2.875452 1.77697,1.809273 2.45545,4.135483 l -5.16936,1.74465 q -0.80771,-1.90619 -2.97237,-3.23084 -2.13236,-1.35696 -5.49244,-1.35696 -3.58624,0 -5.65398,1.58312 -2.03543,1.58311 -2.03543,4.36164 0,2.10005 1.35695,3.52162 1.38927,1.38926 3.61855,2.42313 2.22928,1.03387 4.78165,2.00313 2.39083,0.90463 4.78165,2.06774 2.42313,1.13079 4.42626,2.77853 2.03543,1.64773 3.26315,4.03855 1.22772,2.35852 1.22772,5.7186 0,4.16779 -1.9385,7.07555 -1.93851,2.90776 -5.29859,4.45856 -3.36008,1.5185 -7.62479,1.5185 z m 36.12092,0 q -4.52318,0 -7.81864,-2.22928 -3.29546,-2.22929 -5.07243,-6.13861 -1.77696,-3.90932 -1.77696,-8.94944 0,-5.46013 1.84158,-9.30483 1.84158,-3.87702 5.13704,-5.91245 3.29547,-2.03543 7.68941,-2.03543 3.71548,0 6.81709,1.68004 3.10161,1.64773 4.94319,5.13704 1.87389,3.45701 1.87389,8.88483 0,0.7754 -0.0646,1.80927 -0.0323,1.00156 -0.12923,2.06774 h -22.35745 q 0.32309,3.00469 1.48619,5.26628 1.16311,2.26159 3.0693,3.55393 1.9062,1.26003 4.49088,1.26003 2.10005,0 3.87701,-0.7431 1.80928,-0.74309 3.36008,-2.2939 l 3.29546,3.68316 q -1.84158,1.84159 -4.5878,3.06931 -2.71391,1.19541 -6.07399,1.19541 z m -8.98174,-19.902 h 16.92962 q 0,-2.81084 -0.93694,-5.00781 -0.90464,-2.22929 -2.6816,-3.48932 -1.77697,-1.26003 -4.32934,-1.26003 -3.58623,0 -6.17091,2.32621 -2.55237,2.32621 -2.81083,7.43095 z m 31.66229,19.1266 v -33.01924 h 5.62167 v 3.10161 q 1.42157,-1.90619 3.65086,-2.87545 2.26159,-1.00156 5.00781,-1.00156 2.87545,0 5.20166,1.29234 2.35851,1.26003 3.65085,3.55393 1.5185,-2.32621 4.00625,-3.58624 2.52006,-1.26003 5.55705,-1.26003 5.3309,0 8.46482,3.29546 3.16622,3.26315 3.16622,8.85252 v 21.64666 h -5.62167 v -20.03124 q 0,-4.13548 -1.74465,-6.36477 -1.71235,-2.22928 -4.91089,-2.22928 -2.13235,0 -3.74778,1.09849 -1.58311,1.09849 -2.48775,3.10161 -0.87233,1.97082 -0.87233,4.5878 v 19.83739 h -5.62167 v -20.03124 q 0,-4.23241 -1.68004,-6.39707 -1.64773,-2.19698 -4.91088,-2.19698 -3.29546,0 -5.20166,2.2939 -1.9062,2.2939 -1.9062,6.23553 v 20.09586 z m 63.42145,0 -12.08336,-33.01924 h 5.68629 l 7.81864,22.03436 q 0.29078,0.80772 0.54925,1.58312 0.25846,0.7754 0.48462,1.64773 0.25847,-0.87233 0.48463,-1.64773 0.25847,-0.7754 0.54924,-1.58312 l 7.68941,-22.03436 h 5.62167 l -12.08336,33.01924 z m 36.67008,0.7754 q -4.52318,0 -7.81864,-2.22928 -3.29547,-2.22929 -5.07243,-6.13861 -1.77697,-3.90932 -1.77697,-8.94944 0,-5.46013 1.84159,-9.30483 1.84158,-3.87702 5.13704,-5.91245 3.29546,-2.03543 7.68941,-2.03543 3.71547,0 6.81708,1.68004 3.10161,1.64773 4.9432,5.13704 1.87389,3.45701 1.87389,8.88483 0,0.7754 -0.0646,1.80927 -0.0323,1.00156 -0.12924,2.06774 h -22.35744 q 0.32308,3.00469 1.48619,5.26628 1.1631,2.26159 3.0693,3.55393 1.9062,1.26003 4.49087,1.26003 2.10005,0 3.87702,-0.7431 1.80927,-0.74309 3.36008,-2.2939 l 3.29546,3.68316 q -1.84158,1.84159 -4.5878,3.06931 -2.71391,1.19541 -6.07399,1.19541 z m -8.98175,-19.902 h 16.92963 q 0,-2.81084 -0.93695,-5.00781 -0.90463,-2.22929 -2.6816,-3.48932 -1.77696,-1.26003 -4.32933,-1.26003 -3.58624,0 -6.17091,2.32621 -2.55237,2.32621 -2.81084,7.43095 z m 31.6623,19.1266 v -33.01924 h 5.62167 v 4.32933 q 1.1308,-2.52005 3.10161,-3.81239 2.00313,-1.29234 4.71704,-1.29234 3.00468,0 5.10473,1.68004 l -0.84002,5.29858 q -1.06618,-0.74309 -2.22928,-1.06617 -1.1308,-0.3554 -2.48775,-0.3554 -2.22929,0 -3.87702,1.19542 -1.64773,1.19541 -2.58467,3.36007 -0.90464,2.16467 -0.90464,5.07243 v 18.60967 z"
     id="path5" /></g><path
   d="M 50.214648,143.92883 H 33.238529 c -0.568014,0 -1.028856,-0.46084 -1.028856,-1.02886 v -39.09651 c 0,-0.56802 0.460842,-1.02886 1.028856,-1.02886 h 16.976119 z m 7.716417,-41.15423 h 76.135325 c 0.56802,0 1.02886,0.46084 1.02886,1.02886 v 39.09651 c 0,0.56802 -0.46084,1.02886 -1.02886,1.02886 H 57.931065 Z m 72.875625,28.17811 c 0,-0.56801 -0.46084,-1.02885 -1.02885,-1.02885 h -13.37513 c -0.56801,0 -1.02885,0.46084 -1.02885,1.02885 v 5.65871 c 0,0.56801 0.46084,1.02885 1.02885,1.02885 h 13.37513 c 0.56801,0 1.02885,-0.46084 1.02885,-1.02885 z"
   id="path1"
   style="clip-rule:evenodd;fill:#005ddd;fill-opacity:1;fill-rule:evenodd;stroke-width:1.07172;stroke-linejoin:round;stroke-miterlimit:2"
   sodipodi:nodetypes="csssscccssssccsssssssss" /><path
   d="m 82.124227,94.49204 h -8.976119 c -0.568014,0 -1.028856,-0.46084 -1.028856,-1.028863 v -27.09651 c 0,-0.56802 0.460842,-1.02886 1.028856,-1.02886 h 8.976119 z m 7.716417,-29.154233 h 44.135326 c 0.56802,0 1.02886,0.46084 1.02886,1.02886 v 27.09651 c 0,0.568023 -0.46084,1.028863 -1.02886,1.028863 H 89.840644 Z m 40.875626,18.17811 c 0,-0.56801 -0.46084,-1.02885 -1.02885,-1.02885 h -13.37513 c -0.56801,0 -1.02885,0.46084 -1.02885,1.02885 v 5.65871 c 0,0.56801 0.46084,1.02885 1.02885,1.02885 h 13.37513 c 0.56801,0 1.02885,-0.46084 1.02885,-1.02885 z"
   id="path1-9"
   style="clip-rule:evenodd;display:inline;fill:#005ddd;fill-opacity:1;fill-rule:evenodd;stroke-width:1.07172;stroke-linejoin:round;stroke-miterlimit:2"
   sodipodi:nodetypes="csssscccssssccsssssssss" /><path
   style="font-weight:bold;font-size:52.7885px;line-height:0.9;font-family:Overpass;-inkscape-font-specification:'Overpass Bold';letter-spacing:-3.34575px;fill:#005ddd;stroke-width:0.632269"
   d="M 32.185024,56.451951 44.062437,37.395302 32.924063,19.5 h 7.944669 L 48.021574,31.087076 55.121628,19.5 h 7.944669 L 51.954318,37.289725 63.858125,56.451951 H 55.887061 L 47.968786,43.624345 40.129693,56.451951 Z m 36.773485,0.659856 q -1.847598,0 -3.088127,-1.214135 -1.24053,-1.24053 -1.24053,-3.035339 0,-1.768415 1.24053,-3.035339 1.240529,-1.293318 3.088127,-1.293318 1.847598,0 3.114522,1.293318 1.266924,1.266924 1.266924,3.035339 0,1.794809 -1.266924,3.035339 -1.266924,1.214135 -3.114522,1.214135 z M 81.713288,56.451951 V 42.04069 L 68.173037,19.5 h 7.707121 L 85.091752,34.914242 94.329739,19.5 h 7.654331 L 88.49661,41.987902 v 14.464049 z m 19.432542,0.659856 q -1.847598,0 -3.088128,-1.214135 -1.240529,-1.24053 -1.240529,-3.035339 0,-1.768415 1.240529,-3.035339 1.24053,-1.293318 3.088128,-1.293318 1.8476,0 3.11452,1.293318 1.26693,1.266924 1.26693,3.035339 0,1.794809 -1.26693,3.035339 -1.26692,1.214135 -3.11452,1.214135 z m 5.6283,-0.659856 V 51.331466 L 126.01554,25.966591 H 107.93547 V 19.5 h 27.13329 v 5.120484 L 115.69538,49.98536 h 19.37338 v 6.466591 z"
   id="text2"
   aria-label="X.Y.Z" /></g></svg>
