<?xml version="1.0" encoding="UTF-8" standalone="no"?>
<!-- Generator: Adobe Illustrator 25.2.1, SVG Export Plug-In . SVG Version: 6.00 Build 0)  -->

<svg
   version="1.1"
   id="Layer_1"
   x="0px"
   y="0px"
   viewBox="0 0 480 180"
   xml:space="preserve"
   sodipodi:docname="semver.svg"
   inkscape:version="1.4.3 (0d15f75042, 2025-12-25)"
   width="480"
   height="180"
   xmlns:inkscape="http://www.inkscape.org/namespaces/inkscape"
   xmlns:sodipodi="http://sodipodi.sourceforge.net/DTD/sodipodi-0.dtd"
   xmlns="http://www.w3.org/2000/svg"
   xmlns:svg="http://www.w3.org/2000/svg"><defs
   id="defs1120" /><sodipodi:namedview
   id="namedview1118"
   pagecolor="#ffffff"
   bordercolor="#666666"
   borderopacity="1.0"
   inkscape:pageshadow="2"
   inkscape:pageopacity="0.0"
   inkscape:pagecheckerboard="0"
   showgrid="false"
   inkscape:zoom="3.1480383"
   inkscape:cx="117.05703"
   inkscape:cy="16.677053"
   inkscape:window-width="1080"
   inkscape:window-height="1182"
   inkscape:window-x="0"
   inkscape:window-y="0"
   inkscape:window-maximized="0"
   inkscape:current-layer="g1061"
   showguides="true"
   inkscape:guide-bbox="true"
   inkscape:showpageshadow="2"
   inkscape:deskcolor="#d1d1d1"><sodipodi:guide
     position="268.8,101.8"
     orientation="0,-1"
     id="guide20038"
     inkscape:locked="false" /><sodipodi:guide
     position="163.1,101.8"
     orientation="1,0"
     id="guide20120"
     inkscape:locked="false" /><sodipodi:guide
     position="208.32937,35.771972"
     orientation="0,-1"
     id="guide25439"
     inkscape:locked="false" /><sodipodi:guide
     position="80.298025,163.09711"
     orientation="0,-1"
     id="guide1"
     inkscape:locked="false" /><sodipodi:guide
     position="130.61726,86.466686"
     orientation="1,0"
     id="guide2"
     inkscape:locked="false" /><sodipodi:guide
     position="32.087066,109.32773"
     orientation="1,0"
     id="guide4"
     inkscape:locked="false" /></sodipodi:namedview>
<style
   type="text/css"
   id="style1045">
	.st0{enable-background:new    ;}
	.st1{fill:#EE0000;}
	.st2{fill:#FFFAFA;}
</style>




<g
   class="st0"
   id="g1061"
   style="display:inline">







<text
   xml:space="preserve"
   style="font-size:64.6169px;line-height:0.9;font-family:sans-serif;letter-spacing:0px;stroke-width:1.61542"
   x="158.07626"
   y="78.106651"
   id="text3348"><tspan
     sodipodi:role="line"
     id="tspan3346"
     x="158.07626"
     y="78.106651"
     style="font-style:normal;font-variant:normal;font-weight:800;font-stretch:normal;line-height:0.9;font-family:Overpass;-inkscape-font-specification:'Overpass Ultra-Bold';stroke-width:1.61542">PKO</tspan><tspan
     sodipodi:role="line"
     x="158.07626"
     y="141.90956"
     id="tspan3350"
     style="font-style:normal;font-variant:normal;font-weight:normal;font-stretch:normal;line-height:0.9;font-family:Overpass;-inkscape-font-specification:'Overpass Bold';stroke-width:1.61542">Semver</tspan></text><path
   d="M 50.214648,143.92883 H 33.238529 c -0.568014,0 -1.028856,-0.46084 -1.028856,-1.02886 v -39.09651 c 0,-0.56802 0.460842,-1.02886 1.028856,-1.02886 h 16.976119 z m 7.716417,-41.15423 h 76.135325 c 0.56802,0 1.02886,0.46084 1.02886,1.02886 v 39.09651 c 0,0.56802 -0.46084,1.02886 -1.02886,1.02886 H 57.931065 Z m 72.875625,28.17811 c 0,-0.56801 -0.46084,-1.02885 -1.02885,-1.02885 h -13.37513 c -0.56801,0 -1.02885,0.46084 -1.02885,1.02885 v 5.65871 c 0,0.56801 0.46084,1.02885 1.02885,1.02885 h 13.37513 c 0.56801,0 1.02885,-0.46084 1.02885,-1.02885 z"
   id="path1"
   style="clip-rule:evenodd;fill:#005ddd;fill-opacity:1;fill-rule:evenodd;stroke-width:1.07172;stroke-linejoin:round;stroke-miterlimit:2"
   sodipodi:nodetypes="csssscccssssccsssssssss" /><path
   d="m 82.124227,94.49204 h -8.976119 c -0.568014,0 -1.028856,-0.46084 -1.028856,-1.028863 v -27.09651 c 0,-0.56802 0.460842,-1.02886 1.028856,-1.02886 h 8.976119 z m 7.716417,-29.154233 h 44.135326 c 0.56802,0 1.02886,0.46084 1.02886,1.02886 v 27.09651 c 0,0.568023 -0.46084,1.028863 -1.02886,1.028863 H 89.840644 Z m 40.875626,18.17811 c 0,-0.56801 -0.46084,-1.02885 -1.02885,-1.02885 h -13.37513 c -0.56801,0 -1.02885,0.46084 -1.02885,1.02885 v 5.65871 c 0,0.56801 0.46084,1.02885 1.02885,1.02885 h 13.37513 c 0.56801,0 1.02885,-0.46084 1.02885,-1.02885 z"
   id="path1-9"
   style="clip-rule:evenodd;display:inline;fill:#005ddd;fill-opacity:1;fill-rule:evenodd;stroke-width:1.07172;stroke-linejoin:round;stroke-miterlimit:2"
   sodipodi:nodetypes="csssscccssssccsssssssss" /><text
   xml:space="preserve"
   style="font-style:normal;font-variant:normal;font-weight:900;font-stretch:normal;font-size:52.7885px;line-height:0.9;font-family:Overpass;-inkscape-font-specification:'Overpass Heavy';letter-spacing:-3.34575px;writing-mode:lr-tb;direction:ltr;fill:#005ddd;fill-opacity:1;stroke-width:0.632269"
   x="30.126272"
   y="56.451992"
   id="text2"><tspan
     sodipodi:role="line"
     id="tspan2"
     x="30.126272"
     y="56.451992"
     style="font-style:normal;font-variant:normal;font-weight:bold;font-stretch:normal;font-family:Overpass;-inkscape-font-specification:'Overpass Bold';fill:#005ddd;fill-opacity:1;stroke-width:0.632269">X.Y.Z</tspan></text></g></svg>
